# xmcd
#
# Track frame offsets:
#	150
#	12602
#	28690
#	53171
#	64706
#	93396
#	119562
#	145924
#	161205
#	186117
#	206382
#	227360
#
# Disc length: 3189 seconds
#
# Revision: 1
# Processed by: cddbd v1.5.2PL0 Copyright (c) Steve Scherf et al.
# Submitted via: audiograbber 1.83.01
#
DISCID=a40c730c
DTITLE=B.B. King - Live
DYEAR=2008
DGENRE=Blues
TTITLE0=Mr. King Comes On Stage (B.B. King's Band)
TTITLE1=Why I Sing The Blues
TTITLE2=I Need You So
TTITLE3=Bad Case Of Love
TTITLE4=Blues Man
TTITLE5=When Loves Come To Town
TTITLE6=All Over Again
TTITLE7=You Are My Sunshine
TTITLE8=Rock Me Baby
TTITLE9=Key To The Highway
TTITLE10=The Thrill Is Gone
TTITLE11=When The Saints Go Marching In
EXTD=
EXTT0=
EXTT1=
EXTT2=
EXTT3=
EXTT4=
EXTT5=
EXTT6=
EXTT7=
EXTT8=
EXTT9=
EXTT10=
EXTT11=
PLAYORDER=
